<?xml version="1.0" encoding="UTF-8"?>
<!-- Generated by Pixelmator Pro 3.7 -->
<svg width="1850" height="489" viewBox="0 0 1850 489" xmlns="http://www.w3.org/2000/svg">
    <g id="Logo-copy">
        <path id="konfetti-copy" fill="#000000" fill-rule="evenodd" stroke="none" d="M 1752.208008 492.931335 L 1752.208008 217.042145 L 1676.291504 217.042145 L 1676.291504 492.931335 Z M 1632.300903 292.399902 L 1632.300903 216.483429 L 1595.96228 216.483429 L 1595.96228 53.83493 L 1520.045776 53.83493 L 1520.045776 216.483429 L 1498.019043 216.483429 L 1498.019043 292.399902 L 1520.045776 292.399902 L 1520.045776 418.43985 C 1520.0896 459.455078 1553.327271 492.692841 1594.342529 492.736816 L 1632.300903 492.736816 L 1632.300903 416.820343 L 1595.96228 416.820343 L 1595.96228 292.399902 Z M 1466.582764 292.399902 L 1466.582764 216.483429 L 1430.244019 216.483429 L 1430.244019 53.83493 L 1354.327637 53.83493 L 1354.327637 216.483429 L 1332.300781 216.483429 L 1332.300781 292.399902 L 1354.327637 292.399902 L 1354.327637 418.43985 C 1354.37146 459.455078 1387.609375 492.692841 1428.624512 492.736816 L 1466.582764 492.736816 L 1466.582764 416.820343 L 1430.244019 416.820343 L 1430.244019 292.399902 Z M 1167.473999 415.520966 C 1156.206421 415.922668 1145.070679 412.991241 1135.466675 407.084381 L 1219.932739 372.201965 L 1230.346558 367.9021 L 1306.896973 336.264954 L 1291.988647 301.005981 L 1291.75 300.453552 L 1291.706177 300.340576 L 1291.505249 299.876068 L 1291.461548 299.775635 L 1291.222778 299.235779 L 1291.172607 299.110229 L 1291.015869 298.746185 L 1290.877563 298.444855 L 1290.821167 298.306763 C 1289.603271 295.601288 1288.29126 292.97113 1286.916748 290.378662 C 1286.483521 289.562592 1286.050415 288.752838 1285.604736 287.949341 C 1284.481079 285.934387 1283.319824 283.957092 1282.120972 282.011108 C 1281.537231 281.06958 1280.946899 280.127991 1280.338257 279.198975 C 1279.37146 277.717529 1278.404785 276.248688 1277.387939 274.811218 L 1277.343994 274.811218 C 1239.128296 221.078369 1168.264893 201.845001 1108.129517 228.874603 C 1047.987549 255.910538 1015.333496 321.670502 1030.147705 385.917633 L 1030.298462 386.576782 C 1032.884766 397.637207 1036.851685 408.321014 1042.112061 418.383362 L 1042.244019 418.647003 C 1046.173462 426.116852 1050.799805 433.203796 1056.047485 439.807404 L 1056.072754 439.845123 C 1083.592041 473.886322 1125.197144 493.439819 1168.968262 492.906281 C 1210.158936 492.906281 1243.195923 479.76181 1279.37146 448.959564 L 1230.177124 391.146576 C 1207.755005 410.254333 1190.241455 415.520935 1167.473999 415.520935 Z M 1106.409302 345.366943 C 1108.713257 324.200195 1122.096191 305.858215 1141.549438 297.214539 C 1148.347656 294.213989 1155.698242 292.676117 1163.123901 292.701233 C 1176.43811 292.720001 1189.369141 297.151703 1199.895752 305.299561 C 1200.297729 305.632263 1200.686646 305.983704 1201.07605 306.341553 L 1154.160278 325.719269 L 1109.158936 344.306091 L 1106.396851 345.442261 Z M 998.297302 129.93335 L 998.297302 54.016937 L 960.33905 54.016937 C 919.323853 54.067169 886.092285 87.304871 886.04834 128.313843 L 886.04834 216.489746 L 864.021667 216.489746 L 864.021667 292.406189 L 886.04834 292.406189 L 886.04834 492.918854 L 961.964844 492.918854 L 961.964844 292.406189 L 998.297302 292.406189 L 998.297302 216.489746 L 961.964844 216.489746 L 961.964844 129.93335 Z M 704.806763 216.483429 C 689.226746 216.46463 673.784851 219.465118 659.34729 225.31546 L 659.34729 216.483429 L 583.430664 216.483429 L 583.430664 492.937653 L 659.34729 492.937653 L 659.34729 337.859436 C 659.34729 312.756897 679.697937 292.406189 704.800354 292.406189 C 729.903015 292.406189 750.253662 312.756897 750.253662 337.859436 L 750.253662 492.950256 L 826.170105 492.950256 L 826.170105 337.859436 C 826.101074 270.862854 771.803284 216.558777 704.806763 216.48349 Z M 401.429565 216.496002 C 345.562469 216.496002 295.194183 250.148102 273.814056 301.765472 C 252.433945 353.382965 264.24765 412.796631 303.756348 452.299042 C 343.258728 491.801453 402.672485 503.62146 454.289886 482.241302 C 505.907257 460.861176 539.559387 410.492859 539.559387 354.619507 C 539.465271 278.376617 477.678802 216.590179 401.429565 216.496002 Z M 401.429565 416.832886 C 376.264282 416.832886 353.578491 401.673462 343.949219 378.428955 C 334.313721 355.178192 339.63678 328.418518 357.432678 310.62262 C 375.222198 292.826721 401.988251 287.503662 425.239044 297.132935 C 448.48349 306.762146 463.642944 329.447937 463.642944 354.613281 C 463.611481 388.962097 435.778442 416.795166 401.429565 416.839142 Z M 219.516235 216.860077 L 143.599823 216.860077 L 143.599823 254.818329 C 143.562088 274.804901 127.373283 291.000122 107.386604 291.031494 C 95.064484 291.018921 82.830223 293.046448 71.173447 297.026184 L 71.173447 53.803467 L -4.743023 53.803467 L -4.743023 493.301727 L 71.173447 493.301727 L 71.173447 403.161133 C 71.035347 390.129669 77.902603 378.027222 89.163895 371.473816 C 100.425179 364.914154 114.341782 364.914154 125.603073 371.473816 C 136.864349 378.027222 143.731659 390.129669 143.593567 403.161133 L 143.593567 493.301727 L 219.509979 493.301727 L 219.509979 403.161133 C 219.535095 375.83017 209.535507 349.440826 191.407013 328.989685 C 209.535507 308.538574 219.535095 282.149292 219.509979 254.818329 Z"/>
        <path id="Shape" fill="#000000" fill-rule="evenodd" stroke="none" d="M 1755.543457 134.876984 C 1755.543457 111.850159 1736.876465 93.183228 1713.849731 93.183228 C 1690.822876 93.183228 1672.156006 111.850159 1672.156006 134.876984 C 1672.156006 157.903809 1690.822876 176.570709 1713.849731 176.570709 C 1736.876465 176.570709 1755.543457 157.903809 1755.543457 134.876984 Z"/>
        <path id="path1" fill="#fe5257" fill-rule="evenodd" stroke="none" d="M 1692.302368 68.208191 L 1692.302368 8.661682 L 1735.396973 8.661682 L 1735.396973 68.20813 C 1728.608765 66.015839 1721.367554 64.831482 1713.849731 64.831482 C 1706.331909 64.831482 1699.090576 66.015869 1692.302368 68.208191 Z"/>
        <path id="Shape-copy" fill="#a450a7" fill-rule="evenodd" stroke="none" d="M 1781.160278 111.661804 L 1840.706787 111.661804 L 1840.706787 154.756439 L 1781.160278 154.756439 C 1783.352539 147.968231 1784.536987 140.72699 1784.536987 133.209137 C 1784.536987 125.691254 1783.352661 118.450012 1781.160278 111.661804 Z"/>
        <path id="Shape-copy-2" fill="#f74f9e" fill-rule="evenodd" stroke="none" d="M 1747.128418 72.399109 L 1789.234131 30.293365 L 1819.706665 60.7659 L 1777.600952 102.871643 C 1774.351196 96.521423 1770.068237 90.563629 1764.752319 85.247681 C 1759.436401 79.931732 1753.478638 75.648895 1747.128418 72.399109 Z"/>
    </g>
</svg>
