<?xml version="1.0" encoding="UTF-8"?>
<!-- Generated by Pixelmator Pro 3.7 -->
<svg width="21" height="21" viewBox="0 0 21 21" xmlns="http://www.w3.org/2000/svg">
    <g id="Group">
        <path id="Shape-copy-4" fill="#9d7b83" fill-rule="evenodd" stroke="none" d="M 5.77523 10.557182 C 8.276673 10.557182 10.304493 12.585002 10.304493 15.086445 C 10.304493 17.587887 8.276673 19.615707 5.77523 19.615707 C 3.273788 19.615707 1.245968 17.587887 1.245968 15.086445 C 1.245968 12.585002 3.273788 10.557182 5.77523 10.557182 Z M 9.220589 15.086445 C 9.220589 16.989264 7.678049 18.531803 5.77523 18.531803 C 3.872412 18.531803 2.329873 16.989264 2.329873 15.086445 C 2.329873 13.183626 3.872412 11.641087 5.77523 11.641087 C 7.67805 11.641087 9.220589 13.183626 9.220589 15.086445 Z"/>
        <path id="Shape-copy-2" fill="#9d7b83" fill-rule="evenodd" stroke="none" d="M 3.434508 1.37546 L 3.434508 7.844098 C 4.171923 7.605943 4.958552 7.477283 5.775231 7.477283 C 6.591909 7.477283 7.378538 7.605943 8.115953 7.844098 L 8.115953 1.37546 L 3.434508 1.37546 Z M 5.775231 6.393379 C 5.351665 6.393379 4.931919 6.423757 4.518413 6.483702 L 4.518413 2.459364 L 7.032049 2.459364 L 7.032049 6.483702 C 6.618542 6.423757 6.198796 6.393379 5.775231 6.393379 Z"/>
        <path id="Shape-copy" fill="#9d7b83" fill-rule="evenodd" stroke="none" d="M 19.555929 12.56454 L 13.087292 12.56454 C 13.325447 13.301956 13.454106 14.088585 13.454106 14.905264 C 13.454106 15.721943 13.325447 16.508572 13.087292 17.245987 L 19.555929 17.245987 L 19.555929 12.56454 Z M 14.538011 14.905264 C 14.538011 14.481698 14.507632 14.061952 14.447687 13.648444 L 18.472025 13.648444 L 18.472025 16.162083 L 14.447687 16.162083 C 14.507632 15.748576 14.538011 15.32883 14.538011 14.905264 Z"/>
        <path id="Shape-copy-3" fill="#9d7b83" fill-rule="evenodd" stroke="none" d="M 13.96437 3.725348 L 9.390352 8.299366 C 10.080185 8.652396 10.727391 9.117651 11.30487 9.695129 C 11.882349 10.272609 12.347604 10.919816 12.700634 11.609649 L 17.274652 7.03563 L 13.96437 3.725348 Z M 12.071306 8.928693 C 11.7718 8.629188 11.453514 8.353863 11.118733 8.103857 L 13.96437 5.25822 L 15.74178 7.03563 L 12.896143 9.881267 C 12.646137 9.546485 12.370812 9.228199 12.071306 8.928693 Z"/>
    </g>
</svg>
