<?xml version="1.0" encoding="UTF-8"?>
<!-- Generated by Pixelmator Pro 3.7 -->
<svg width="21" height="21" viewBox="0 0 21 21" xmlns="http://www.w3.org/2000/svg">
    <g id="Group">
        <path id="Shape-copy-5" fill="#9d7b83" fill-rule="evenodd" stroke="none" d="M 10.304493 15.086445 C 10.304493 12.585002 8.276673 10.557182 5.77523 10.557182 C 3.273788 10.557182 1.245968 12.585002 1.245968 15.086445 C 1.245968 17.587887 3.273788 19.615707 5.77523 19.615707 C 8.276673 19.615707 10.304493 17.587887 10.304493 15.086445 Z"/>
        <path id="Shape-copy-3" fill="#9d7b83" fill-rule="evenodd" stroke="none" d="M 3.434508 7.844098 L 3.434508 1.37546 L 8.115953 1.37546 L 8.115953 7.844098 C 7.378538 7.605943 6.591909 7.477283 5.775231 7.477283 C 4.958552 7.477283 4.171923 7.605943 3.434508 7.844098 Z"/>
        <path id="Shape-copy" fill="#9d7b83" fill-rule="evenodd" stroke="none" d="M 13.087292 12.56454 L 19.555929 12.56454 L 19.555929 17.245987 L 13.087292 17.245987 C 13.325447 16.508572 13.454106 15.721943 13.454106 14.905264 C 13.454106 14.088585 13.325447 13.301956 13.087292 12.56454 Z"/>
        <path id="Shape-copy-4" fill="#9d7b83" fill-rule="evenodd" stroke="none" d="M 9.390352 8.299366 L 13.96437 3.725348 L 17.274652 7.03563 L 12.700634 11.609649 C 12.347604 10.919816 11.882349 10.272609 11.30487 9.695129 C 10.727391 9.117651 10.080185 8.652396 9.390352 8.299366 Z"/>
    </g>
</svg>
